<svg width="22" height="22" viewBox="0 0 22 22" fill="none" xmlns="http://www.w3.org/2000/svg">
<path d="M20.1668 5.49996V16.5C20.1668 17.0041 19.9873 17.4357 19.6283 17.7948C19.2693 18.1538 18.8377 18.3333 18.3335 18.3333H3.66683C3.16266 18.3333 2.73107 18.1538 2.37204 17.7948C2.01301 17.4357 1.8335 17.0041 1.8335 16.5V5.49996C1.8335 4.99579 2.01301 4.5642 2.37204 4.20517C2.73107 3.84614 3.16266 3.66663 3.66683 3.66663H18.3335C18.8377 3.66663 19.2693 3.84614 19.6283 4.20517C19.9873 4.5642 20.1668 4.99579 20.1668 5.49996ZM3.66683 7.33329H18.3335V5.49996H3.66683V7.33329ZM3.66683 11V16.5H18.3335V11H3.66683Z" fill="#9A9DA7"/>
</svg>
