<svg width="20" height="20" viewBox="0 0 20 20" fill="none" xmlns="http://www.w3.org/2000/svg">
<path fill-rule="evenodd" clip-rule="evenodd" d="M9.99967 4.08325C6.73199 4.08325 4.08301 6.73223 4.08301 9.99992C4.08301 13.2676 6.73199 15.9166 9.99967 15.9166C13.2674 15.9166 15.9163 13.2676 15.9163 9.99992C15.9163 6.73223 13.2674 4.08325 9.99967 4.08325ZM2.58301 9.99992C2.58301 5.90381 5.90356 2.58325 9.99967 2.58325C14.0958 2.58325 17.4163 5.90381 17.4163 9.99992C17.4163 14.096 14.0958 17.4166 9.99967 17.4166C5.90356 17.4166 2.58301 14.096 2.58301 9.99992Z" fill="#62616E"/>
<path d="M9.16593 9.79161C9.16593 9.33137 9.53903 8.95828 9.99927 8.95828C10.4595 8.95828 10.8326 9.33137 10.8326 9.79161V13.1249C10.8326 13.5852 10.4595 13.9583 9.99927 13.9583C9.53903 13.9583 9.16593 13.5852 9.16593 13.1249V9.79161Z" fill="#62616E"/>
<path d="M9.16593 6.87489C9.16593 6.41466 9.53903 6.04156 9.99927 6.04156C10.4595 6.04156 10.8326 6.41466 10.8326 6.87489V7.70823C10.8326 8.16846 10.4595 8.54156 9.99927 8.54156C9.53903 8.54156 9.16593 8.16846 9.16593 7.70823V6.87489Z" fill="#62616E"/>
</svg>
