<svg width="24" height="24" viewBox="0 0 24 24" fill="none" xmlns="http://www.w3.org/2000/svg">
<path d="M18.0782 13.936H19.8102C19.8597 13.936 19.9751 13.9196 20.0247 13.9196C20.3546 13.8536 20.635 13.5567 20.635 13.1443C20.635 12.7485 20.3546 12.4515 20.0247 12.3691C19.9751 12.3525 19.8763 12.3525 19.8103 12.3525H18.0784L18.0782 13.936Z" fill="url(#paint0_linear_4025_24193)"/>
<path d="M19.6123 3C17.9628 3 16.6102 4.33621 16.6102 6.00215V9.11973H20.8495C20.9485 9.11973 21.0639 9.11973 21.1463 9.13618C22.103 9.18572 22.8124 9.68053 22.8124 10.5382C22.8124 11.2145 22.334 11.7918 21.4433 11.9074V11.9403C22.4164 12.0062 23.1587 12.5506 23.1587 13.3918C23.1587 14.2991 22.334 14.8929 21.2453 14.8929H16.5938V20.996H20.9979C22.6474 20.996 24 19.6599 24 17.9939V3H19.6123Z" fill="url(#paint1_linear_4025_24193)"/>
<path d="M20.4205 10.7361C20.4205 10.3402 20.1401 10.0762 19.8102 10.0267C19.7773 10.0267 19.6947 10.0103 19.6453 10.0103H18.0782V11.4618H19.6453C19.6949 11.4618 19.7937 11.4618 19.8103 11.4453C20.1402 11.3958 20.4206 11.132 20.4206 10.736" fill="url(#paint2_linear_4025_24193)"/>
<path d="M3.0186 3C1.3691 3 0.0164444 4.33621 0.0164444 6.00215V13.4084C0.857743 13.8207 1.73193 14.0847 2.60622 14.0847C3.64538 14.0847 4.20618 13.4579 4.20618 12.6001V9.10318H6.7794V12.5836C6.7794 13.9361 5.93821 15.0414 3.08458 15.0414C1.35266 15.0414 0 14.6619 0 14.6619V20.9795H4.40414C6.05364 20.9795 7.40629 19.6434 7.40629 17.9773V3.00021L3.0186 3Z" fill="url(#paint3_linear_4025_24193)"/>
<path d="M11.3155 3C9.66601 3 8.31335 4.33621 8.31335 6.00215V9.92793C9.07222 9.2846 10.3918 8.87222 12.5196 8.9712C13.6578 9.02075 14.8783 9.33414 14.8783 9.33414V10.6043C14.268 10.2909 13.5423 10.0104 12.6021 9.94437C10.9856 9.82895 10.0124 10.6207 10.0124 12.0062C10.0124 13.4083 10.9856 14.2001 12.6021 14.0681C13.5423 14.0021 14.2681 13.7053 14.8783 13.4083V14.6785C14.8783 14.6785 13.6742 14.9918 12.5196 15.0414C10.3918 15.1403 9.07222 14.7279 8.31346 14.0847V21.0125H12.7176C14.3671 21.0125 15.7196 19.6764 15.7196 18.0103V3.00021L11.3155 3Z" fill="url(#paint4_linear_4025_24193)"/>
<defs>
<linearGradient id="paint0_linear_4025_24193" x1="-129.006" y1="91.7243" x2="612.252" y2="91.7243" gradientUnits="userSpaceOnUse">
<stop stop-color="#007940"/>
<stop offset="0.2285" stop-color="#00873F"/>
<stop offset="0.7433" stop-color="#40A737"/>
<stop offset="1" stop-color="#5CB531"/>
</linearGradient>
<linearGradient id="paint1_linear_4025_24193" x1="17.9491" y1="902.083" x2="759.245" y2="902.083" gradientUnits="userSpaceOnUse">
<stop stop-color="#007940"/>
<stop offset="0.2285" stop-color="#00873F"/>
<stop offset="0.7433" stop-color="#40A737"/>
<stop offset="1" stop-color="#5CB531"/>
</linearGradient>
<linearGradient id="paint2_linear_4025_24193" x1="-129.028" y1="82.3807" x2="612.271" y2="82.3807" gradientUnits="userSpaceOnUse">
<stop stop-color="#007940"/>
<stop offset="0.2285" stop-color="#00873F"/>
<stop offset="0.7433" stop-color="#40A737"/>
<stop offset="1" stop-color="#5CB531"/>
</linearGradient>
<linearGradient id="paint3_linear_4025_24193" x1="1.30351" y1="902.083" x2="754.02" y2="902.083" gradientUnits="userSpaceOnUse">
<stop stop-color="#1F286F"/>
<stop offset="0.4751" stop-color="#004E94"/>
<stop offset="0.8261" stop-color="#0066B1"/>
<stop offset="1" stop-color="#006FBC"/>
</linearGradient>
<linearGradient id="paint4_linear_4025_24193" x1="4.04733" y1="902.076" x2="735.115" y2="902.076" gradientUnits="userSpaceOnUse">
<stop stop-color="#6C2C2F"/>
<stop offset="0.1735" stop-color="#882730"/>
<stop offset="0.5731" stop-color="#BE1833"/>
<stop offset="0.8585" stop-color="#DC0436"/>
<stop offset="1" stop-color="#E60039"/>
</linearGradient>
</defs>
</svg>
