<svg width="24" height="24" viewBox="0 0 24 24" fill="none" xmlns="http://www.w3.org/2000/svg">
<path d="M8.74658 6.58496H15.2294V18.2335H8.74658V6.58496Z" fill="#FF5F00"/>
<path d="M9.15834 12.409C9.15834 10.0422 10.2697 7.943 11.9778 6.58466C10.7225 5.59681 9.13781 5 7.40906 5C3.31341 5 0 8.31341 0 12.409C0 16.5045 3.31341 19.8179 7.40897 19.8179C9.13772 19.8179 10.7224 19.2211 11.9778 18.2332C10.2697 16.8955 9.15834 14.7757 9.15834 12.409Z" fill="#EB001B"/>
<path d="M23.9763 12.409C23.9763 16.5044 20.6629 19.8179 16.5673 19.8179C14.8386 19.8179 13.2539 19.2211 11.9985 18.2332C13.7273 16.8749 14.8181 14.7757 14.8181 12.409C14.8181 10.0422 13.7067 7.943 11.9985 6.58466C13.2538 5.59681 14.8386 5 16.5673 5C20.6629 5 23.9763 8.33403 23.9763 12.409Z" fill="#F79E1B"/>
</svg>
