<svg width="16" height="17" viewBox="0 0 16 17" fill="none" xmlns="http://www.w3.org/2000/svg">
<path d="M8.00003 1.5C4.13441 1.5 1.00003 4.63438 1.00003 8.5C1.00003 12.3656 4.13441 15.5 8.00003 15.5C11.8656 15.5 15 12.3656 15 8.5C15 4.63438 11.8656 1.5 8.00003 1.5ZM8.00003 14.3125C4.79065 14.3125 2.18753 11.7094 2.18753 8.5C2.18753 5.29062 4.79065 2.6875 8.00003 2.6875C11.2094 2.6875 13.8125 5.29062 13.8125 8.5C13.8125 11.7094 11.2094 14.3125 8.00003 14.3125Z" fill="#353B50"/>
<path d="M9.7437 5.44844C9.2749 5.03751 8.65618 4.8125 7.99994 4.8125C7.34369 4.8125 6.72494 5.03907 6.25619 5.44844C5.76869 5.875 5.49994 6.44844 5.49994 7.0625V7.18125C5.49994 7.25 5.55619 7.30625 5.62494 7.30625H6.37494C6.44369 7.30625 6.49994 7.25 6.49994 7.18125V7.0625C6.49994 6.37344 7.17338 5.8125 7.99994 5.8125C8.8265 5.8125 9.49994 6.37344 9.49994 7.0625C9.49994 7.54844 9.15618 7.99376 8.62338 8.19844C8.2921 8.325 8.0109 8.54688 7.80931 8.83752C7.60463 9.1344 7.49838 9.49064 7.49838 9.8516V10.1875C7.49838 10.2562 7.55463 10.3125 7.62338 10.3125H8.37338C8.4421 10.3125 8.49834 10.2562 8.49834 10.1875V9.8328C8.49922 9.68112 8.5457 9.5332 8.63178 9.40832C8.71794 9.28344 8.8397 9.18744 8.98122 9.1328C9.90306 8.77816 10.4983 7.96563 10.4983 7.0625C10.4999 6.44844 10.2312 5.875 9.7437 5.44844ZM7.37494 11.9375C7.37494 12.1033 7.44079 12.2622 7.55799 12.3794C7.67521 12.4966 7.83418 12.5625 7.99994 12.5625C8.1657 12.5625 8.32466 12.4966 8.44186 12.3794C8.55906 12.2622 8.6249 12.1033 8.6249 11.9375C8.6249 11.7718 8.55906 11.6128 8.44186 11.4955C8.32466 11.3783 8.1657 11.3125 7.99994 11.3125C7.83418 11.3125 7.67521 11.3783 7.55799 11.4955C7.44079 11.6128 7.37494 11.7718 7.37494 11.9375Z" fill="#353B50"/>
</svg>
