<svg width="24" height="24" viewBox="0 0 24 24" fill="none" xmlns="http://www.w3.org/2000/svg">
<path d="M17.445 9.30084C16.8866 9.09841 16.2967 8.99658 15.7028 9.00009C13.785 9.00009 12.4298 9.96909 12.4215 11.3558C12.4058 12.3751 13.3822 12.9496 14.1202 13.2931C14.8785 13.6448 15.132 13.8638 15.1283 14.1758C15.1245 14.6566 14.5223 14.8711 13.968 14.8711C13.1978 14.8711 12.78 14.7661 12.1357 14.4961L11.8965 14.3828L11.6235 15.9848C12.0922 16.1761 12.9323 16.3441 13.7992 16.3598C15.8422 16.3598 17.1742 15.3991 17.1893 13.9178C17.205 13.1056 16.6822 12.4891 15.5685 11.9806C14.8965 11.6528 14.4757 11.4293 14.4757 11.0933C14.4757 10.7963 14.835 10.4843 15.585 10.4843C16.0827 10.4727 16.5773 10.5644 17.0378 10.7536L17.2215 10.8353L17.4907 9.29259L17.445 9.30084ZM22.4303 9.13284H20.9303C20.4615 9.13284 20.1135 9.25809 19.9065 9.72309L17.0235 16.2578H19.0627L19.4738 15.1876L21.9615 15.1913C22.0238 15.4411 22.1993 16.2571 22.1993 16.2571H24L22.4303 9.13284ZM9.66 9.07434H11.6017L10.3868 16.2023H8.445L9.66 9.07059V9.07434ZM4.72275 12.9998L4.9215 13.9921L6.8235 9.13284H8.88225L5.81925 16.2458H3.7695L2.0895 10.2226C2.07692 10.1724 2.0541 10.1254 2.02248 10.0845C1.99086 10.0436 1.95112 10.0097 1.90575 9.98484C1.30208 9.67143 0.661976 9.43388 0 9.27759L0.02325 9.12834H3.156C3.57825 9.14409 3.92175 9.27759 4.03875 9.73059L4.72275 13.0036V12.9998ZM20.0272 13.7303L20.805 11.7346C20.793 11.7533 20.9648 11.3243 21.0623 11.0543L21.195 11.6671L21.645 13.7258H20.0272V13.7303Z" fill="#012FC0"/>
</svg>
