<svg width="75" height="22" viewBox="0 0 75 22" fill="none" xmlns="http://www.w3.org/2000/svg">
<mask id="mask0_1816_7194" style="mask-type:luminance" maskUnits="userSpaceOnUse" x="1" y="0" width="74" height="21">
<path d="M75 0H1V21H75V0Z" fill="white"/>
</mask>
<g mask="url(#mask0_1816_7194)">
<mask id="mask1_1816_7194" style="mask-type:luminance" maskUnits="userSpaceOnUse" x="1" y="0" width="74" height="21">
<path d="M75 0H1V21H75V0Z" fill="white"/>
</mask>
<g mask="url(#mask1_1816_7194)">
<path d="M75 0.161154V20.4944H71.0009V11.9865H61.7947V20.4944H57.808V0.161154H61.7947V8.76366H71.0009V0.161154H75ZM30.5645 0.161154H28.8618L20.204 20.4944H24.3886L30.4656 5.80835H30.6676L36.6869 20.4944H40.9251L32.2673 0.161154H30.5645ZM40.3108 16.0408L40.3521 16.1437C40.6365 16.8846 42.2939 20.7742 47.7401 20.9842C56.4722 21.3176 56.3155 15.6909 56.3155 14.5343C56.2567 13.6022 55.9514 12.7024 55.4306 11.9265C54.9099 11.1507 54.1924 10.5265 53.3512 10.1178C50.0777 8.3891 44.5037 8.59902 44.5037 5.26504C44.5037 4.24426 45.4148 2.79542 48.1153 2.76249C50.7332 2.7131 52.102 4.4089 52.2875 5.37205L55.2724 4.49534C54.7447 3.3305 53.6233 0.0747176 47.9751 0.0747176C46.9712 0.0503923 45.97 0.189412 45.0108 0.486321C41.5064 1.67174 40.888 4.37186 40.888 5.7178C40.9334 13.5053 52.5184 11.4802 52.3865 15.5057C52.3411 16.9793 50.894 18.1482 47.9875 18.0206C44.9737 17.8971 43.943 16.049 43.4524 14.9706L40.3108 16.0408ZM11.4307 3.1C14.0486 3.04649 15.6029 4.40067 15.8874 5.30208L19.0826 4.42948C18.5507 3.28111 16.7161 0.227011 11.542 -0.0117188C1.73798 -0.0117188 1 9.17115 1 10.1014C1 19.7699 8.19427 20.8442 10.9936 20.9718C13.743 21.0677 16.495 20.894 19.2104 20.4532V8.76366H9.09716V11.9947H15.4133C15.429 11.9947 15.4441 12.0007 15.4556 12.0114C15.4671 12.0221 15.4741 12.0367 15.4751 12.0524V17.7202C15.4735 17.7372 15.4672 17.7534 15.4571 17.7672C15.4469 17.781 15.4332 17.7917 15.4174 17.7984C14.155 18.0079 12.8742 18.0866 11.5956 18.033C10.7092 18.0042 5.1599 17.7819 5.1599 10.5253C5.1599 5.85774 7.4934 3.14116 11.4307 3.11647" fill="#E72E6B"/>
</g>
</g>
</svg>
